<svg xmlns="http://www.w3.org/2000/svg" xmlns:xlink="http://www.w3.org/1999/xlink" version="1.1" x="0px" y="0px" viewBox="0 0 100 125" enable-background="new 0 0 100 100" xml:space="preserve"><path d="M19.886,72.212c11.181-0.984,24.218,0.134,34.021-6.109c9.409-5.991,16.646-17.209,22.136-26.99  c0.63,3.394,1.066,6.824,1.452,10.282c0.354,3.168,5.357,3.202,5,0c-0.745-6.687-1.579-13.322-3.625-19.757  c-0.464-1.456-2.278-2.429-3.673-1.493c-4.58,3.069-9.1,6.207-14.142,8.484c-2.935,1.326-0.391,5.634,2.523,4.318  c2.889-1.305,5.604-2.896,8.258-4.591C66.883,45.11,60.905,53.79,53.294,60.36c-8.611,7.435-22.73,5.912-33.408,6.852  C16.7,67.492,16.673,72.495,19.886,72.212z"/><text x="0" y="115" fill="#000000" font-size="5px" font-weight="bold" font-family="'Helvetica Neue', Helvetica, Arial-Unicode, Arial, Sans-serif">Created by Daria Szymonowicz</text><text x="0" y="120" fill="#000000" font-size="5px" font-weight="bold" font-family="'Helvetica Neue', Helvetica, Arial-Unicode, Arial, Sans-serif">from the Noun Project</text></svg>