<svg xmlns="http://www.w3.org/2000/svg" xmlns:xlink="http://www.w3.org/1999/xlink" version="1.1" x="0px" y="0px" viewBox="0 0 59.3 65" enable-background="new 0 0 59.3 52" xml:space="preserve"><path d="M45.5,23.4H37c-1.2-2.7-4-4.7-7.2-4.7s-6,1.9-7.2,4.7h-8.8v6.5h8.8c1.2,2.7,4,4.7,7.2,4.7s6-1.9,7.2-4.7h8.5V23.4z   M29.8,30.6c-2.2,0-3.9-1.8-3.9-3.9c0-2.2,1.8-3.9,3.9-3.9c2.2,0,3.9,1.8,3.9,3.9C33.7,28.8,32,30.6,29.8,30.6z"/><text x="0" y="67" fill="#000000" font-size="5px" font-weight="bold" font-family="'Helvetica Neue', Helvetica, Arial-Unicode, Arial, Sans-serif">Created by Nick Bluth</text><text x="0" y="72" fill="#000000" font-size="5px" font-weight="bold" font-family="'Helvetica Neue', Helvetica, Arial-Unicode, Arial, Sans-serif">from the Noun Project</text></svg>