<svg xmlns="http://www.w3.org/2000/svg" xmlns:xlink="http://www.w3.org/1999/xlink" version="1.1" preserveAspectRatio="xMidYMid meet" width="245.47337279175008" height="243.4733727917502">


<g class="currentLayer"><title>Layer 1</title>
    <g class="logo__item__inner" transform="translate(615.9485473632812,303.5) scale(0.1371428519487381) " id="svg_3">

<g id="svg_4">
	<path fill="none" d="M-3303.7689872345745,-1775.233150054325 c-48.631984901428225,48.631984901428225 -59.257460594177246,124.64500331878662 -25.950681018829343,184.7198081970215 l14.507861042022704,26.155017089843753 l-21.25095138549805,21.25095138549805 L-3821.9652633271016,-1058.013540793766 l-21.25095138549805,21.25095138549805 l-26.155017089843753,-14.507861042022704 c-60.07480487823486,-33.3067795753479 -136.08782329559324,-22.476967811584473 -184.7198081970215,25.950681018829343 c-60.48347702026368,60.48347702026368 -60.48347702026368,158.76912717819215 0,219.2526041984558 c60.48347702026368,60.48347702026368 158.76912717819215,60.48347702026368 219.2526041984558,0 c48.631984901428225,-48.631984901428225 59.257460594177246,-124.44066724777221 25.950681018829343,-184.7198081970215 l-14.507861042022704,-26.155017089843753 l21.046615314483645,-21.046615314483645 l485.5025047302246,-485.5025047302246 l21.046615314483645,-21.046615314483645 l26.155017089843753,14.507861042022704 c60.07480487823486,33.3067795753479 136.08782329559324,22.476967811584473 184.7198081970215,-25.950681018829343 c29.220058155059817,-29.220058155059817 45.36260776519775,-68.24824771881103 45.36260776519775,-109.52413406372071 c0,-41.480222415924075 -16.14254961013794,-80.30407590866088 -45.36260776519775,-109.72847013473512 C-3144.9998600563813,-1835.7166270745888 -3243.2855102143094,-1835.7166270745888 -3303.7689872345745,-1775.233150054325 zM-3900.225978525619,-871.6590440286291 c-24.315992450714113,24.315992450714113 -63.54851808547974,24.315992450714113 -87.86451053619385,0 c-24.315992450714113,-24.315992450714113 -24.315992450714113,-63.54851808547974 0,-87.86451053619385 c24.315992450714113,-24.315992450714113 63.54851808547974,-24.315992450714113 87.86451053619385,0 C-3876.114322145919,-935.2075621141084 -3876.114322145919,-895.9750364793435 -3900.225978525619,-871.6590440286291 zM-3150.3125979027554,-1621.7767607225069 c-24.315992450714113,24.315992450714113 -63.54851808547974,24.315992450714113 -87.86451053619385,0 c-24.315992450714113,-24.315992450714113 -24.315992450714113,-63.54851808547974 0,-87.86451053619385 c24.315992450714113,-24.315992450714113 63.54851808547974,-24.315992450714113 87.86451053619385,0 C-3125.996605452043,-1685.3252788079872 -3125.996605452043,-1646.0927531732214 -3150.3125979027554,-1621.7767607225069 z" data-part-id="logo__item--logo_0__0" id="svg_5"/>
	<path fill="none" d="M-2960.0757157883454,-2134.455962897647 H-3288.0351097664643 l-355.5447635650635,353.9100749969482 c33.5111156463623,85.6168137550354 13.894852828979491,184.51547212600707 -52.310034179687506,250.72035913467408 c-44.34092741012573,44.34092741012573 -103.18971586227417,68.24824771881103 -165.71655359268186,68.24824771881103 c-62.52683773040772,0 -121.57996225357056,-24.520328521728516 -165.71655359268186,-68.86125593185426 c-44.34092741012573,-44.34092741012573 -68.65691986083985,-103.18971586227417 -68.65691986083985,-165.9208896636963 c0,-62.52683773040772 24.315992450714113,-121.57996225357056 68.65691986083985,-165.71655359268186 c66.20488700866699,-66.20488700866699 165.9208896636963,-84.18646125793458 251.53770341873167,-50.67534561157227 L-3552.854657801132,-2134.455962897647 H-4236.358815344314 c-96.85529766082763,0 -178.38538999557494,75.60434627532959 -178.38538999557494,172.66398000717163 V-693.8866622460973 c0,96.85529766082763 81.53009233474731,177.77238178253174 178.38538999557494,177.77238178253174 h406.62878131866455 l359.83582105636594,-360.6531653404236 c-33.5111156463623,-85.6168137550354 -13.894852828979491,-185.74148855209353 52.310034179687506,-251.9463755607605 c91.33822374343873,-91.33822374343873 240.09488344192505,-91.74689588546752 331.6374432563782,-0.2043360710144044 c91.33822374343873,91.33822374343873 91.33822374343873,240.09488344192505 0,331.4331071853637 c-66.20488700866699,66.20488700866699 -165.9208896636963,86.63849411010742 -251.53770341873167,53.12737846374512 L-3565.114822061996,-516.1142804635656 h604.8347702026367 c46.99729633331299,0 94.19892873764039,-19.411926746368408 127.50570831298828,-52.5143702507019 C-2799.467563971024,-601.9354302896154 -2778.0122765145115,-647.0937019837984 -2778.0122765145115,-693.8866622460973 V-1961.7919828904755 c0,-46.99729633331299 -21.45528745651245,-89.49919910430907 -54.762067031860354,-122.60164260864258 C-2865.8767870507054,-2117.7004050744667 -2913.2827555260465,-2134.455962897647 -2960.0757157883454,-2134.455962897647 zM-3028.528299578171,-1499.7881263269082 c-66.20488700866699,66.20488700866699 -165.9208896636963,85.8211498260498 -251.53770341873167,52.310034179687506 L-3726.3359820923615,-1001.2081130517618 c33.5111156463623,85.6168137550354 13.894852828979491,185.3328164100647 -52.310034179687506,251.33336734771729 c-91.33822374343873,91.33822374343873 -240.09488344192505,91.33822374343873 -331.6374432563782,0 c-91.33822374343873,-91.33822374343873 -91.33822374343873,-240.09488344192505 0,-331.6374432563782 c66.20488700866699,-66.20488700866699 165.9208896636963,-85.8211498260498 251.53770341873167,-52.310034179687506 l446.269979095459,-446.269979095459 c-33.5111156463623,-85.6168137550354 -13.894852828979491,-185.3328164100647 52.310034179687506,-251.53770341873167 c91.33822374343873,-91.33822374343873 240.09488344192505,-91.33822374343873 331.6374432563782,0 c44.34092741012573,44.34092741012573 68.65691986083985,103.18971586227417 68.65691986083985,165.71655359268186 C-2959.8713797173314,-1602.9778421891824 -2984.187372168046,-1544.1290537370332 -3028.528299578171,-1499.7881263269082 z" data-part-id="logo__item--logo_0__1" id="svg_6"/>
	<path fill="#333333" d="M-3905.7430524430074,-1740.2916819108614 c-24.315992450714113,24.315992450714113 -24.315992450714113,63.54851808547974 0,87.86451053619385 c24.315992450714113,24.315992450714113 63.54851808547974,24.315992450714113 87.86451053619385,0 c24.315992450714113,-24.315992450714113 24.315992450714113,-63.54851808547974 0,-87.86451053619385 C-3841.990198286514,-1764.6076743615758 -3881.4270599922947,-1764.6076743615758 -3905.7430524430074,-1740.2916819108614 z" data-part-id="logo__item--logo_0__2" id="svg_7"/>
	<path fill="#333333" d="M-3207.9353699288185,-919.6780207170141 c24.315992450714113,-24.315992450714113 24.315992450714113,-63.54851808547974 0,-87.86451053619385 c-24.315992450714113,-24.315992450714113 -63.54851808547974,-24.315992450714113 -87.86451053619385,0 c-24.315992450714113,24.315992450714113 -24.315992450714113,63.54851808547974 0,87.86451053619385 C-3271.688224085312,-895.3620282662996 -3232.251362379533,-895.3620282662996 -3207.9353699288185,-919.6780207170141 z" data-part-id="logo__item--logo_0__3" id="svg_8"/>
	<path fill="#333333" d="M-2778.4209486565396,-2139.7687007440213 C-2826.6442614159405,-2187.9920135034204 -2892.03180414055,-2212.103669883121 -2960.0757157883454,-2212.103669883121 H-3304.5863315186307 h-16.346885681152344 l-11.647156047821046,9.195123195648193 L-3719.3885556778714,-1817.5307167543065 L-3740.435170992356,-1796.8927735818515 l14.507861042022704,25.950681018829343 c33.3067795753479,60.07480487823486 22.476967811584473,135.88348722457886 -25.950681018829343,184.51547212600707 c-29.220058155059817,29.220058155059817 -68.24824771881103,45.36260776519775 -109.72847013473512,45.36260776519775 c-41.480222415924075,0 -80.30407590866088,-16.14254961013794 -109.52413406372071,-45.36260776519775 c-29.220058155059817,-29.220058155059817 -45.36260776519775,-68.24824771881103 -45.36260776519775,-109.72847013473512 c0,-41.480222415924075 16.14254961013794,-80.30407590866088 45.36260776519775,-109.72847013473512 c48.631984901428225,-48.631984901428225 124.44066724777221,-59.257460594177246 184.7198081970215,-26.155017089843753 l26.155017089843753,14.507861042022704 l21.25095138549805,-21.046615314483645 l310.59082794189453,-308.1387950897217 l67.83957557678224,-65.38754272460938 h-95.83361730575561 H-4236.358815344314 C-4377.146368273241,-2212.103669883121 -4490.34855161522,-2102.5795358194005 -4490.34855161522,-1961.7919828904755 V-693.8866622460973 c0,140.78755292892458 113.20218334197997,255.42008876800537 253.98973627090453,255.42008876800537 h423.1800030708313 h16.551221752166747 l11.647156047821046,-11.851492118835449 l390.89490385055547,-390.89490385055547 l21.046615314483645,-21.25095138549805 l-14.507861042022704,-26.155017089843753 c-33.3067795753479,-60.07480487823486 -22.476967811584473,-136.08782329559324 25.950681018829343,-184.7198081970215 c60.48347702026368,-60.48347702026368 158.76912717819215,-60.48347702026368 219.2526041984558,0 c60.48347702026368,60.48347702026368 60.48347702026368,158.76912717819215 0,219.2526041984558 c-48.631984901428225,48.631984901428225 -124.44066724777221,59.257460594177246 -184.7198081970215,26.155017089843753 l-26.155017089843753,-14.507861042022704 l-21.25095138549805,21.046615314483645 l-314.6775493621826,314.881885433197 L-3756.782056673508,-438.46657347809196 h95.83361730575561 h700.6683875083922 c68.24824771881103,0 133.63579044342043,-26.76802530288696 181.65476713180544,-74.99133806228639 c48.22331275939942,-48.22331275939942 76.01301841735841,-112.38483905792236 76.01301841735841,-180.63308677673342 V-1961.7919828904755 C-2702.407930239182,-2030.040230609287 -2730.1976358971406,-2091.5453879846223 -2778.4209486565396,-2139.7687007440213 zM-2778.0122765145115,-693.8866622460973 c0,46.99729633331299 -21.45528745651245,92.15556802749634 -54.762067031860354,125.25801153182982 C-2865.8767870507054,-535.526207209934 -2913.2827555260465,-516.1142804635656 -2960.0757157883454,-516.1142804635656 h-604.8347702026367 l227.42604703903197,-228.447727394104 c85.6168137550354,33.5111156463623 185.3328164100647,13.486180686950682 251.53770341873167,-52.71870632171631 c91.33822374343873,-91.33822374343873 91.33822374343873,-240.50355558395387 0,-331.8417793273926 c-91.33822374343873,-91.33822374343873 -240.09488344192505,-91.54255981445311 -331.6374432563782,-0.2043360710144044 c-66.20488700866699,66.20488700866699 -85.8211498260498,166.94257001876832 -52.310034179687506,252.5593837738037 L-3829.7300340256497,-516.1142804635656 h-406.62878131866455 c-96.85529766082763,0 -178.38538999557494,-80.91708412170411 -178.38538999557494,-177.77238178253174 V-1961.7919828904755 c0,-96.85529766082763 81.53009233474731,-172.66398000717163 178.38538999557494,-172.66398000717163 h683.5041575431824 L-3775.9896473488607,-1912.7513258470185 c-85.6168137550354,-33.5111156463623 -185.3328164100647,-14.71219711303711 -251.53770341873167,51.49268989562988 c-44.34092741012573,44.34092741012573 -68.65691986083985,102.78104372024535 -68.65691986083985,165.3078814506531 c0,62.52683773040772 24.315992450714113,121.37562618255615 68.65691986083985,165.51221752166748 c44.34092741012573,44.34092741012573 103.18971586227417,68.65691986083985 165.71655359268186,68.65691986083985 c62.52683773040772,0 121.57996225357056,-24.520328521728516 165.71655359268186,-68.65691986083985 c66.20488700866699,-66.20488700866699 85.6168137550354,-164.28620109558108 52.310034179687506,-249.90301485061644 l355.5447635650635,-353.9100749969482 h327.9593939781189 c46.99729633331299,0 94.19892873764039,16.75555782318115 127.50570831298828,49.85800132751464 c33.10244350433349,33.10244350433349 54.762067031860354,75.808682346344 54.762067031860354,122.60164260864258 V-693.8866622460973 z" data-part-id="logo__item--logo_0__4" id="svg_9"/>
	<path fill="#333333" d="M-3238.1771084389493,-1709.6412712587007 c-24.315992450714113,24.315992450714113 -24.315992450714113,63.54851808547974 0,87.86451053619385 c24.315992450714113,24.315992450714113 63.54851808547974,24.315992450714113 87.86451053619385,0 c24.315992450714113,-24.315992450714113 24.315992450714113,-63.54851808547974 0,-87.86451053619385 C-3174.62859035347,-1733.9572637094152 -3213.8611159882366,-1733.9572637094152 -3238.1771084389493,-1709.6412712587007 z" data-part-id="logo__item--logo_0__5" id="svg_10"/>
	<path fill="#333333" d="M-3359.9614067635357,-1831.4255695832867 c-66.20488700866699,66.20488700866699 -85.6168137550354,165.9208896636963 -52.310034179687506,251.53770341873167 L-3858.541420038682,-1133.6178870690956 c-85.6168137550354,-33.5111156463623 -185.3328164100647,-13.894852828979491 -251.53770341873167,52.310034179687506 c-91.33822374343873,91.33822374343873 -91.33822374343873,240.09488344192505 0,331.6374432563782 c91.33822374343873,91.33822374343873 240.09488344192505,91.33822374343873 331.6374432563782,0 c66.20488700866699,-66.20488700866699 85.6168137550354,-165.9208896636963 52.310034179687506,-251.33336734771729 l446.269979095459,-446.269979095459 c85.6168137550354,33.5111156463623 185.3328164100647,13.894852828979491 251.53770341873167,-52.310034179687506 c44.34092741012573,-44.34092741012573 68.65691986083985,-103.18971586227417 68.65691986083985,-165.71655359268186 c0,-62.52683773040772 -24.315992450714113,-121.57996225357056 -68.65691986083985,-165.71655359268186 C-3119.8665233216107,-1922.7637933267247 -3268.623183020096,-1922.7637933267247 -3359.9614067635357,-1831.4255695832867 zM-3084.516383036118,-1555.9805458558694 c-48.631984901428225,48.631984901428225 -124.44066724777221,59.257460594177246 -184.7198081970215,25.950681018829343 l-26.155017089843753,-14.507861042022704 l-21.046615314483645,21.046615314483645 L-3801.940328367693,-1037.9886058343545 L-3823.1912797531895,-1016.7376544488561 l14.507861042022704,26.155017089843753 c33.3067795753479,60.07480487823486 22.476967811584473,136.08782329559324 -25.950681018829343,184.7198081970215 c-60.48347702026368,60.48347702026368 -158.76912717819215,60.48347702026368 -219.2526041984558,0 c-60.48347702026368,-60.48347702026368 -60.48347702026368,-158.76912717819215 0,-219.2526041984558 c48.631984901428225,-48.631984901428225 124.44066724777221,-59.257460594177246 184.7198081970215,-25.950681018829343 l26.155017089843753,14.507861042022704 l21.25095138549805,-21.25095138549805 l485.2981686592102,-485.2981686592102 l21.25095138549805,-21.25095138549805 l-14.507861042022704,-26.155017089843753 c-33.3067795753479,-60.07480487823486 -22.476967811584473,-136.08782329559324 25.950681018829343,-184.7198081970215 c60.48347702026368,-60.48347702026368 158.76912717819215,-60.48347702026368 219.2526041984558,0 c29.220058155059817,29.220058155059817 45.36260776519775,68.24824771881103 45.36260776519775,109.72847013473512 C-3039.153775270921,-1624.22879357468 -3055.2963248810574,-1585.200604010929 -3084.516383036118,-1555.9805458558694 z" data-part-id="logo__item--logo_0__6" id="svg_11"/>
	<path fill="#333333" d="M-3988.294825132829,-959.5235545648229 c-24.315992450714113,24.315992450714113 -24.315992450714113,63.54851808547974 0,87.86451053619385 c24.315992450714113,24.315992450714113 63.54851808547974,24.315992450714113 87.86451053619385,0 c24.315992450714113,-24.315992450714113 24.315992450714113,-63.54851808547974 0,-87.86451053619385 C-3924.5419709763355,-983.8395470155374 -3963.9788326821126,-983.8395470155374 -3988.294825132829,-959.5235545648229 z" data-part-id="logo__item--logo_0__7" id="svg_12"/>
</g>

</g>
</g>
</svg>
